<mxfile host="localhost" modified="2020-05-19T09:08:20.085Z" agent="5.0 (Macintosh; Intel Mac OS X 10_14_6) AppleWebKit/537.36 (KHTML, like Gecko) Code/1.45.1 Chrome/78.0.3904.130 Electron/7.2.4 Safari/537.36" etag="vDy-G2dOz1ht0ilUMbdT" version="13.0.9">
    <diagram id="6hGFLwfOUW9BJ-s0fimq" name="Page-1">
        <mxGraphModel dx="980" dy="697" grid="1" gridSize="10" guides="1" tooltips="1" connect="1" arrows="1" fold="1" page="1" pageScale="1" pageWidth="827" pageHeight="1169" math="0" shadow="0">
            <root>
                <mxCell id="0"/>
                <mxCell id="1" parent="0"/>
                <mxCell id="20" style="edgeStyle=orthogonalEdgeStyle;rounded=0;orthogonalLoop=1;jettySize=auto;html=1;exitX=0.5;exitY=1;exitDx=0;exitDy=0;entryX=0.5;entryY=0;entryDx=0;entryDy=0;" edge="1" parent="1" source="2" target="4">
                    <mxGeometry relative="1" as="geometry"/>
                </mxCell>
                <mxCell id="2" value="&lt;font style=&quot;font-size: 16px&quot;&gt;Source&lt;/font&gt;" style="rounded=0;whiteSpace=wrap;html=1;strokeColor=#4D4D4D;" parent="1" vertex="1">
                    <mxGeometry x="170" y="90" width="120" height="40" as="geometry"/>
                </mxCell>
                <mxCell id="3" value="" style="rounded=0;whiteSpace=wrap;html=1;strokeColor=#4D4D4D;fillColor=#00CC00;" parent="1" vertex="1">
                    <mxGeometry x="160" y="90" width="10" height="40" as="geometry"/>
                </mxCell>
                <mxCell id="21" style="edgeStyle=orthogonalEdgeStyle;rounded=0;orthogonalLoop=1;jettySize=auto;html=1;exitX=0.5;exitY=1;exitDx=0;exitDy=0;entryX=0.5;entryY=0;entryDx=0;entryDy=0;" edge="1" parent="1" source="4" target="6">
                    <mxGeometry relative="1" as="geometry"/>
                </mxCell>
                <mxCell id="4" value="&lt;font style=&quot;font-size: 16px&quot;&gt;Build&lt;/font&gt;" style="rounded=0;whiteSpace=wrap;html=1;strokeColor=#4D4D4D;" vertex="1" parent="1">
                    <mxGeometry x="170" y="160" width="120" height="40" as="geometry"/>
                </mxCell>
                <mxCell id="5" value="" style="rounded=0;whiteSpace=wrap;html=1;strokeColor=#4D4D4D;fillColor=#00CC00;" vertex="1" parent="1">
                    <mxGeometry x="160" y="160" width="10" height="40" as="geometry"/>
                </mxCell>
                <mxCell id="22" style="edgeStyle=orthogonalEdgeStyle;rounded=0;orthogonalLoop=1;jettySize=auto;html=1;exitX=0.5;exitY=1;exitDx=0;exitDy=0;entryX=0.5;entryY=0;entryDx=0;entryDy=0;" edge="1" parent="1" source="6" target="8">
                    <mxGeometry relative="1" as="geometry"/>
                </mxCell>
                <mxCell id="6" value="&lt;font style=&quot;font-size: 16px&quot;&gt;UpdatePipeline&lt;/font&gt;" style="rounded=0;whiteSpace=wrap;html=1;strokeColor=#4D4D4D;" vertex="1" parent="1">
                    <mxGeometry x="170" y="230" width="120" height="40" as="geometry"/>
                </mxCell>
                <mxCell id="7" value="" style="rounded=0;whiteSpace=wrap;html=1;strokeColor=#4D4D4D;fillColor=#00CC00;" vertex="1" parent="1">
                    <mxGeometry x="160" y="230" width="10" height="40" as="geometry"/>
                </mxCell>
                <mxCell id="37" style="edgeStyle=orthogonalEdgeStyle;rounded=0;orthogonalLoop=1;jettySize=auto;html=1;exitX=0.5;exitY=1;exitDx=0;exitDy=0;entryX=0.5;entryY=0;entryDx=0;entryDy=0;" edge="1" parent="1" source="8" target="10">
                    <mxGeometry relative="1" as="geometry"/>
                </mxCell>
                <mxCell id="8" value="&lt;font style=&quot;font-size: 16px&quot;&gt;PublishAssets&lt;/font&gt;" style="rounded=0;whiteSpace=wrap;html=1;strokeColor=#4D4D4D;" vertex="1" parent="1">
                    <mxGeometry x="170" y="300" width="120" height="40" as="geometry"/>
                </mxCell>
                <mxCell id="9" value="" style="rounded=0;whiteSpace=wrap;html=1;strokeColor=#4D4D4D;fillColor=#00CC00;" vertex="1" parent="1">
                    <mxGeometry x="160" y="300" width="10" height="40" as="geometry"/>
                </mxCell>
                <mxCell id="38" style="edgeStyle=orthogonalEdgeStyle;rounded=0;orthogonalLoop=1;jettySize=auto;html=1;exitX=0.5;exitY=1;exitDx=0;exitDy=0;entryX=0.5;entryY=0;entryDx=0;entryDy=0;" edge="1" parent="1" source="10" target="23">
                    <mxGeometry relative="1" as="geometry"/>
                </mxCell>
                <mxCell id="10" value="&lt;font style=&quot;font-size: 16px&quot;&gt;Stage 1&lt;/font&gt;" style="rounded=0;whiteSpace=wrap;html=1;strokeColor=#808080;dashed=1;" vertex="1" parent="1">
                    <mxGeometry x="170" y="370" width="120" height="40" as="geometry"/>
                </mxCell>
                <mxCell id="11" value="" style="rounded=0;whiteSpace=wrap;html=1;strokeColor=#808080;fillColor=#99FF99;dashed=1;" vertex="1" parent="1">
                    <mxGeometry x="160" y="370" width="10" height="40" as="geometry"/>
                </mxCell>
                <mxCell id="39" style="edgeStyle=orthogonalEdgeStyle;rounded=0;orthogonalLoop=1;jettySize=auto;html=1;exitX=0.5;exitY=1;exitDx=0;exitDy=0;entryX=0.5;entryY=0;entryDx=0;entryDy=0;" edge="1" parent="1" source="23" target="25">
                    <mxGeometry relative="1" as="geometry"/>
                </mxCell>
                <mxCell id="23" value="&lt;font style=&quot;font-size: 16px&quot;&gt;Stage 2&lt;/font&gt;" style="rounded=0;whiteSpace=wrap;html=1;strokeColor=#808080;dashed=1;" vertex="1" parent="1">
                    <mxGeometry x="170" y="440" width="120" height="40" as="geometry"/>
                </mxCell>
                <mxCell id="24" value="" style="rounded=0;whiteSpace=wrap;html=1;strokeColor=#808080;fillColor=#99FF99;dashed=1;" vertex="1" parent="1">
                    <mxGeometry x="160" y="440" width="10" height="40" as="geometry"/>
                </mxCell>
                <mxCell id="25" value="&lt;font style=&quot;font-size: 16px&quot;&gt;...&lt;/font&gt;" style="rounded=0;whiteSpace=wrap;html=1;strokeColor=#808080;dashed=1;" vertex="1" parent="1">
                    <mxGeometry x="170" y="510" width="120" height="40" as="geometry"/>
                </mxCell>
                <mxCell id="26" value="" style="rounded=0;whiteSpace=wrap;html=1;strokeColor=#808080;fillColor=#99FF99;dashed=1;" vertex="1" parent="1">
                    <mxGeometry x="160" y="510" width="10" height="40" as="geometry"/>
                </mxCell>
            </root>
        </mxGraphModel>
    </diagram>
</mxfile>